<svg xmlns="http://www.w3.org/2000/svg" viewBox="0 0 400 400">
  <rect width="400" height="400" rx="24" fill="#f8fafc"/>
  <g>
    <path d="M40 40 H360 V360 H40 Z M200 40 L360 200 L200 360 L40 200 Z" fill="none"/>
    <path d="M40 40 L200 200 L360 40 Z" fill="#ef4444"/>
    <path d="M360 40 L200 200 L360 360 Z" fill="#22c55e"/>
    <path d="M360 360 L200 200 L40 360 Z" fill="#facc15"/>
    <path d="M40 360 L200 200 L40 40 Z" fill="#3b82f6"/>
  </g>
  <rect x="150" y="150" width="100" height="100" fill="#ffffff" stroke="#1f2937" stroke-width="4"/>
  <circle cx="175" cy="175" r="8" fill="#1f2937"/>
  <circle cx="225" cy="175" r="8" fill="#1f2937"/>
  <circle cx="175" cy="225" r="8" fill="#1f2937"/>
  <circle cx="225" cy="225" r="8" fill="#1f2937"/>
  <circle cx="200" cy="200" r="8" fill="#1f2937"/>
  <circle cx="90" cy="90" r="16" fill="#ffffff" stroke="#b91c1c" stroke-width="4"/>
  <circle cx="310" cy="90" r="16" fill="#ffffff" stroke="#15803d" stroke-width="4"/>
  <circle cx="310" cy="310" r="16" fill="#ffffff" stroke="#a16207" stroke-width="4"/>
  <circle cx="90" cy="310" r="16" fill="#ffffff" stroke="#1d4ed8" stroke-width="4"/>
</svg>
